<?xml version="1.0" encoding="UTF-8" standalone="no"?>
<svg
   version="1.1"
   width="800"
   height="800"
   viewBox="0 0 800 800"
   id="svg87"
   sodipodi:docname="light.svg"
   inkscape:version="1.2.2 (732a01da63, 2022-12-09)"
   xmlns:inkscape="http://www.inkscape.org/namespaces/inkscape"
   xmlns:sodipodi="http://sodipodi.sourceforge.net/DTD/sodipodi-0.dtd"
   xmlns="http://www.w3.org/2000/svg"
   xmlns:svg="http://www.w3.org/2000/svg">
  <defs
     id="defs91" />
  <sodipodi:namedview
     id="namedview89"
     pagecolor="#ffffff"
     bordercolor="#000000"
     borderopacity="0.25"
     inkscape:showpageshadow="2"
     inkscape:pageopacity="0.0"
     inkscape:pagecheckerboard="0"
     inkscape:deskcolor="#d1d1d1"
     showgrid="false"
     inkscape:zoom="1.027"
     inkscape:cx="412.36611"
     inkscape:cy="429.40604"
     inkscape:window-width="2560"
     inkscape:window-height="1377"
     inkscape:window-x="-8"
     inkscape:window-y="-8"
     inkscape:window-maximized="1"
     inkscape:current-layer="svg87">
    <inkscape:grid
       type="xygrid"
       id="grid214"
       originx="-100"
       originy="-100" />
  </sodipodi:namedview>
  <rect
     style="fill:#ffffff"
     id="rect787"
     width="800"
     height="800"
     x="0"
     y="0"
     inkscape:label="background" />
  <path
     d="m 622.57764,589.57991 v 27.05762 H 189.6557 V 183.71559 h 27.05762 v 405.86432 z m -239.37032,-255.5939 110.52954,27.6123 38.26117,-63.73338 34.66757,20.82169 1.7968,-107.91341 -94.35838,52.37172 34.66758,20.82168 -27.92939,46.55856 -105.93143,-26.50294 -113.64708,113.64708 19.13058,19.13059 z m -31.20589,228.53628 h 54.11524 V 367.59665 l -14.61196,-3.64686 -39.50328,39.50328 z m -81.17287,-97.02694 v 97.02694 h 54.11525 v -132.0116 l -44.55038,44.55038 z m 243.5186,-85.612 V 562.52229 H 568.4624 V 351.3198 L 541.27287,335.01674 Z M 487.28954,562.52229 V 387.88986 l -54.11525,-13.52881 v 188.16124 z"
     fill="#213d30"
     data-fill-palette-color="accent"
     id="path35"
     style="fill:#cecece;fill-opacity:1;stroke-width:0.845551"
     inkscape:label="graph" />
  <path
     d="M 75.65652,419.51962 H 62.84871 v -33.36597 l -0.65681,-5.25449 h 42.2986 v 8.93263 H 75.65652 v 5.97697 h 21.74043 v 9.12967 H 75.65652 Z m 39.21159,0 h -13.79302 l 19.24454,-38.62046 h 17.07708 l 19.17886,38.62046 h -14.12142 l -3.21837,-7.02787 h -20.75522 z m 13.66165,-30.08192 -6.43674,13.99006 h 13.46462 l -6.37107,-13.99006 z m 47.02764,30.08192 h -12.54508 v -33.36597 l -0.65681,-5.25449 h 15.88167 l 11.573,22.98837 11.82259,-22.98837 h 15.02783 v 38.62046 h -12.53195 v -22.13451 h -0.72249 l -2.7586,7.09355 -4.79472,11.1001 h -11.95395 l -5.0049,-11.1001 -2.67978,-7.09355 h -0.65681 z m 64.22293,0 h -12.61076 v -38.62046 h 12.61076 z m 43.08677,0 h -32.57781 l 0.65682,-5.25448 v -33.36598 h 12.61076 v 29.62216 h 23.25109 l 3.94086,8.27581 q 0,0.26272 -1.77339,0.48604 -1.77338,0.23645 -6.10833,0.23645 z m 26.86355,0 H 297.0542 v -15.9605 l -19.17886,-22.65996 h 15.82913 l 6.50242,8.99831 3.02133,4.79471 h 0.65681 l 3.02133,-4.79471 6.37106,-8.99831 h 15.82913 l -2.56156,3.94087 -16.81434,18.98182 z m 52.5317,0 h -12.80781 v -33.36597 l -0.65681,-5.25449 h 42.2986 v 8.93263 h -28.83398 v 5.97697 h 21.74043 v 9.12967 h -21.74043 z m 48.01285,0 h -12.61077 v -38.62046 h 12.61077 z m 23.77654,0 h -12.61076 v -33.36597 l -0.65682,-5.25449 h 12.08532 l 18.52205,18.78478 2.56156,2.88997 h 0.7225 v -21.67475 h 12.61076 v 38.62046 h -10.96874 l -19.0475,-18.98182 -2.56156,-3.08701 h -0.65681 z m 52.80756,0 h -13.79302 l 19.24455,-38.62046 h 17.07707 l 19.17887,38.62046 h -14.12143 l -3.21837,-7.02787 h -20.75521 z m 13.66166,-30.08192 -6.43674,13.99006 h 13.46461 l -6.37106,-13.99006 z m 47.08018,30.08192 h -12.61077 v -33.36597 l -0.65681,-5.25449 h 12.08532 l 18.52205,18.78478 2.56156,2.88997 h 0.7225 v -21.67475 h 12.61076 v 38.62046 h -10.96874 l -19.0475,-18.98182 -2.56156,-3.08701 h -0.65681 z m 73.36573,0 h -16.94571 q -7.02787,0 -10.18056,-3.08701 -3.1527,-3.08701 -3.1527,-9.98352 v 0 -12.01963 q 0,-7.09355 3.4811,-10.35133 3.4811,-3.24465 9.85216,-3.24465 v 0 h 19.17886 q 4.532,0 6.93592,0.48604 2.39079,0.49918 2.39079,1.02463 v 0 l -2.03611,8.21013 q -1.64203,-0.19705 -6.39733,-0.4335 -4.76845,-0.22331 -11.99336,-0.22331 v 0 h -3.34974 q -3.08701,0 -4.16418,1.14285 -1.0903,1.15598 -1.0903,3.5205 v 0 11.23146 q 0,2.23316 0.95894,3.44169 0.94581,1.22167 4.29554,1.22167 v 0 h 2.69293 q 9.39239,0 14.31847,-0.23646 4.92607,-0.22331 5.91129,-0.48604 v 0 l 4.00654,7.09356 q 0,0.3284 -1.33989,0.98521 -1.35303,0.65681 -4.53199,1.18226 -3.1921,0.52545 -8.84067,0.52545 z m 58.45613,0 h -37.17547 v -38.62046 h 42.16723 v 8.93263 h -29.35943 v 5.45152 h 21.74043 v 9.12967 h -21.74043 v 6.10834 h 28.30854 l 3.94086,8.27581 q 0,0.26272 -1.77339,0.48604 -1.77339,0.23645 -6.10834,0.23645 z m 46.23946,0 h -24.36767 q -4.46631,0 -6.5681,-0.39409 -2.1018,-0.39408 -2.1018,-0.91953 v 0 l 3.94087,-8.47286 q 1.51066,0.26273 6.2397,0.48604 4.72903,0.23646 12.28235,0.23646 v 0 h 5.18881 q 2.29883,0 3.08701,-0.65682 0.78817,-0.65681 0.78817,-1.90475 v 0 -0.65681 q 0,-1.57634 -0.78817,-2.16747 -0.78818,-0.59113 -3.08701,-0.59113 v 0 h -15.04096 q -6.63379,0 -9.65512,-2.46961 -3.02133,-2.45647 -3.02133,-8.03936 v 0 -2.36452 q 0,-2.88996 1.07717,-5.32016 1.09031,-2.4302 3.71755,-3.91459 2.62724,-1.47126 7.22492,-1.47126 v 0 h 21.8061 q 4.00655,0 6.66006,0.45977 2.66665,0.45977 2.66665,0.98522 v 0 l -1.97043,8.14445 q -1.83907,-0.19705 -6.93592,-0.4335 -5.08371,-0.22331 -12.89976,-0.22331 v 0 l -4.72903,-0.0657 q -2.03611,0 -2.88997,0.55173 -0.85385,0.56485 -0.91953,2.07552 v 0 0.45976 q 0,1.51067 0.91953,2.1018 0.91954,0.59113 2.95565,0.59113 v 0 h 14.44983 q 4.20359,0 7.15924,0.85385 2.95564,0.85385 4.53199,3.11328 1.57634,2.27257 1.57634,6.6732 v 0 2.36451 q 0,4.92608 -2.53529,7.94741 -2.52215,3.02133 -8.76185,3.02133 z"
     opacity="1"
     fill="#ffffff"
     class="undefined-text-0"
     data-fill-palette-color="primary"
     id="text-0"
     style="stroke-width:1.31362;fill:#213d30;fill-opacity:1"
     inkscape:label="name" />
</svg>
